<svg xmlns="http://www.w3.org/2000/svg" viewBox="0 0 36 36"><path fill="#b4a59a" d="M18 12c-6.627 0-12 5.373-12 12s5.373 12 12 12 12-5.373 12-12-5.373-12-12-12zm0 20c-4.418 0-8-3.582-8-8s3.582-8 8-8 8 3.582 8 8-3.582 8-8 8z"/><path fill="#ec955d" d="M29 5l-4-5H11L7 5l11 9z"/><path fill="#f7b78c" d="M29 5l-4-5H11L7 5h11z"/><path fill="#ec955d" d="M29 5l-4-5h-7v5h1z"/><path fill="#f7b78c" d="M18 5h11l-11 9z"/><path fill="#b4a59a" d="M25 13c0 1.657-1.343 3-3 3h-8c-1.657 0-3-1.343-3-3s1.343-3 3-3h8c1.657 0 3 1.343 3 3z"/></svg>