<svg viewBox="0 0 288 192" xmlns="http://www.w3.org/2000/svg" width="288" height="192" fill="none"><g clip-path="url(#a)"><path fill="#B57AF5" d="m177.54 162.69-2.55 17.1a2.13 2.13 0 0 1-1.9 1.8l-41.29 4.1-55.38-17.97-.98-10.77a3.17 3.17 0 0 1 2.75-3.43l35.97-4.68 60.7 10.15a3.25 3.25 0 0 1 2.68 3.7Z"/><path fill="#5C19BF" d="M176.96 160.29a3.25 3.25 0 0 0-2.1-1.3l-37.53-6.27 4.17 33.6 31.68-4.66a2.13 2.13 0 0 0 1.8-1.8l2.56-17.17c.13-.85-.08-1.7-.58-2.4Z"/><path fill="#FF4CD2" d="M177.54 162.69a3.25 3.25 0 0 0-2.68-3.7l-11.46-1.91 1.43 2.55 7.65 1.37 1.2 3.12 3.77-.8.1-.63Z"/><path fill="#B57AF5" d="m164.02 148.51-41.47-6.45-30.75-.31a2.23 2.23 0 0 0-2.25 2.18l44.01 11.33 32.8-4.05a2.91 2.91 0 0 0-2.34-2.7Z"/><path fill="#5C19BF" d="m141.31 144.98-8.93 4.12s1.96.97 1.58 3.57c-.32 2.16 23.84-1.76 31.78-3.1a2.87 2.87 0 0 0-1.7-1.05l-22.73-3.54Z"/><path fill="#000" d="m164.03 148.51-22.71-3.53-1.74.8-11.55 2.97 20.26 2.34 17.16-1.83c-.4-.38-.89-.64-1.42-.75Z"/><path fill="#D939B7" d="M165.4 149.22c-.38-.35-.86-.6-1.38-.7l-22.7-3.54-.1.28 22.33 4.17 1.85-.2Z"/><path fill="#A056F2" d="m166.35 151.21-32.8 4.05.39-2.58-43.32-10.62a2.23 2.23 0 0 0-1.07 1.86v.12l.35 10.14 42.44 11.02 32.49-5.58 1.48-7.7c.04-.23.05-.47.04-.7Z"/><path fill="#C3C8FC" d="m117.81 143.16.3-.33-.08-.82-26.23-.26a2.2 2.2 0 0 0-1.78.85l-.02.03a2.93 2.93 0 0 0-.26.46v.02a1.8 1.8 0 0 0-.08.22l-.05.33-.03.27v.11l.36 10.14.74.2s-.31-9.15-.23-10.23c.05-1.81 1.06-1.88 1.06-1.88l26.3.9Z"/><path fill="#2C0590" d="M166.36 151.21a2.92 2.92 0 0 0-.94-1.98l-31.47 3.44-.38 2.59-1.22 9.95 32.49-5.6 1.47-7.7c.05-.22.06-.46.05-.7Z"/><path fill="#D939B7" d="m166.35 151.21-1.68.21-1.25 8.45 1.4-.24 1.49-7.7c.04-.24.06-.48.04-.72Z"/><path fill="#A056F2" d="m134.53 168.75-49.06-12.1-9.08-2.24a3.16 3.16 0 0 0-.94 2.54l1.65 18.2c.09.97.76 1.78 1.7 2.04l49.79 13.88c1.53.43 3.14.46 4.69.1l39.98-9.4c.89-.2 1.55-.95 1.63-1.86l1.93-19.8-42.29 8.64Z"/><path fill="#FE72DD" d="m164.67 151.4 1.69-.2a2.92 2.92 0 0 0-.94-1.99l-1.85.2a1.89 1.89 0 0 1 1.1 2Z"/><path fill="#2C0590" d="m134.53 168.75-3.5 22.67c.75 0 1.5-.08 2.25-.25l39.98-9.4c.89-.2 1.55-.95 1.63-1.86l1.93-19.8-42.29 8.64Z"/><path fill="#5C19BF" d="m138.95 167.84.44-3.85-7.05 1.21 4.14 1.1-1.96 2.45 4.43-.9Z"/><path fill="#5C19BF" d="m132.34 165.2.64.15c-.36-.13-.64-.15-.64-.15ZM141.6 167.3l-8.62-1.95c.77.28 1.93 1.08 1.54 3.4l7.08-1.44Z"/><path fill="#FE72DD" d="M177.57 162.34v-.42a3.34 3.34 0 0 0-.75-1.81l-4.34.88s1.6.37 1.2 3.13l3.77-.8a5.28 5.28 0 0 0 .12-.98Z"/><path fill="#FF4CD2" d="m173.68 164.12 3.77-.8-2.49 16.68a2.13 2.13 0 0 1-1.62 1.76l-2.11.49 2.45-18.13Z"/><path fill="#C3C7F7" d="M144.41 1.35a145 145 0 0 0-27-.72c-1.67 13.65-5.39 53.56 5.39 71.17a4.14 4.14 0 0 0 7.14-.13c1.32-2.34 2.82-5.95 4.27-11.52 2.84-10.99 7.77-42.66 10.2-58.8Z"/><path fill="#7E88EF" d="m153.28 94.19-14.5-5.58.1-.74-1.71.12-1.6-.62-.12.74-15.5 1.08a.38.38 0 0 0-.33.25.38.38 0 0 0-.01.22c.02.07.05.13.1.19 1.44 1.37 4.46 5.32 3.52 13.8l2.9 4.01 15.83 2.38 3.94-3c1.6-8.37 5.63-11.27 7.41-12.15a.38.38 0 0 0 .13-.57.38.38 0 0 0-.16-.13Z"/><path fill="url(#b)" d="M197.27 20.21c.7-4.7-20.3-14.07-47.33-18.12-27.03-4.06-49.8-.6-50.51 4.11-.06-.22-.03.23 0 0-1.2 5.95-9.72 51.95 10.65 74.7a62.65 62.65 0 0 0 11.59 10.3 39.6 39.6 0 0 0 14.07 6.16c4.2.4 9.32.05 15.25-1.76a62.65 62.65 0 0 0 14.1-6.44c28.02-16.9 32.18-68.95 32.18-68.95Z"/><path fill="#5C19BF" d="m110.22 77.83-6.4-2.14a5.88 5.88 0 0 1-3.6-3.44c-1.4-3.54-3.7-10.71-4.89-21.62-1.77-16.28-5.7-26 3.8-25.28 9.49.71-5.26-8.74-5.26-8.74l-6.56 3.16-1.79 5.65s1 30.82 4.17 40.9c3.18 10.09 8.85 14.44 8.85 14.44l19.34 5.25-7.66-8.18Z"/><path fill="#1D0066" d="m93.6 27.78-8.04-1.2c.04 1 .1 2.6.2 4.6l7.25 1.1c-.06-1.86.1-3.37.59-4.5Z"/><path fill="#000" d="M99.12 25.35c9.49.73-5.25-8.75-5.25-8.75l-6.56 3.17-1.79 5.64.05 1.16 8.03 1.2c.8-1.8 2.46-2.66 5.52-2.42Z"/><path fill="#1D0066" d="m110.22 77.83-6.4-2.14-.28-.1-.1-.05-.18-.08-.12-.05-.16-.08-.11-.06-.15-.09-.12-.07-.14-.08-.11-.08-.14-.1-.1-.08a5.88 5.88 0 0 1-1.9-2.52 72.4 72.4 0 0 1-.4-1.05l-8.47-.56a33.43 33.43 0 0 0 3.98 6.7h.01c1.8 2.33 3.21 3.42 3.21 3.42l18 4.88.51-.53-6.83-7.28Z"/><path fill="#9CA3F3" d="m122.55 88.3-2.4.05-1.21-4.72-20.2-5.85c-3.26-.83-6.24-4.53-6.9-7.83a271.3 271.3 0 0 1-4.3-30.86C86.52 25.87 86.53 22.72 92 21.56c5.46-1.16 10.44 5.31 10.44 5.31l-.34-9.52s-2.3-3.21-10.52-1.58c-8.22 1.63-8.07 8.04-7.66 15.6.29 5.33 3.55 28.1 5.45 41.05a14.45 14.45 0 0 0 10.15 11.74l14.91 4.44c1.4.44 6.93 2.37 8.1 5.95 1.34 4.1.03-6.25.03-6.25Z"/><path fill="url(#c)" d="M197.27 20.21c.71-4.7-20.29-14.07-47.33-18.12-27.03-4.06-49.8-.6-50.5 4.11l-.01.05c-1.22 6.1-9.65 51.95 10.67 74.67a65.3 65.3 0 0 0 9.54 8.83l.07.1c1.45 1.37 4.46 5.33 3.52 13.8l2.9 4.02 15.83 2.38 3.94-3c1.6-8.38 5.63-11.27 7.41-12.16a.47.47 0 0 0 .1-.07c4.09-1.5 8-3.39 11.71-5.65 28-16.9 32.15-68.96 32.15-68.96Z"/><path fill="url(#d)" d="M99.44 6.25V6.2c-.05-.2-.03.15 0 .05Z"/><path fill="url(#e)" d="M129.79 83.2c6.61 1 12.28-2.08 16.53-5.79a34.36 34.36 0 0 0 10.62-17.61c.21-.84.41-1.7.6-2.57a2564.1 2564.1 0 0 0 10.38-51.5 177.98 177.98 0 0 0-17.96-3.64c-17.38-2.6-33-2.1-42.14-.16 0 0-8.6 38.49 2.74 66.39 1.12 2.64 6.33 12.95 19.23 14.88Z"/><path fill="#C3C7F7" d="m129.59 50.8 2.89 3.17.63.68.07.08.03.03 1 .98c.27.28.56.53.84.8 2.9-13.17 7.16-40.57 9.36-55.19a145 145 0 0 0-27-.72c-.94 7.66-2.52 23.6-1.82 39.23 5.7 1.9 10.02 6.58 14 10.93Z"/><path fill="url(#f)" d="M153.32 94.9a.47.47 0 0 0 .1-.08c4.09-1.49 8-3.38 11.71-5.65 27.98-16.9 32.14-68.96 32.14-68.96.45-3-7.91-7.89-21.02-12.09-1.47 10.94-9.05 62.53-23.2 79.24-2.72 3.2-4.82 5.55-7 7.13l-.42.3c-2 1.5-4.78 4.69-6.04 11.33l-3.94 2.98 6.31.95 3.94-2.99c1.6-8.38 5.63-11.28 7.42-12.17Z"/><path fill="#A056F2" d="m141.96 110.04-15.84-2.37-2.98 3.85a2.86 2.86 0 0 0-.42 2.76l1.73 4.55 15.81 2.37 3-3.85a2.83 2.83 0 0 0 .42-2.75l-1.72-4.56Z"/><path fill="#3E1689" d="m136.87 116.33-2.47 4 5.86.87 3-3.84a2.84 2.84 0 0 0 .42-2.76l-1.72-4.56-6.26-.94 1.49 4.63a3.13 3.13 0 0 1-.32 2.6Z"/><path fill="#00004F" d="M148.4 93.43s-1.87 3.56.28 5.4l2.68-2.84"/><path fill="#262EA6" d="m144.1 106.78-4.52-.67-3.88 3 4.51.67 3.88-3Z"/><path fill="#3D43CC" d="m139.58 106.1-16.35-2.44 2.89 4 9.58 1.45 3.88-3Z"/><path fill="#3D43CC" d="m123.23 103.66 2.89 4 7.07 1.07 1.44-3.37-11.4-1.7Z"/><path fill="url(#g)" d="m134.51 27.28 3.74 11.66a1.1 1.1 0 0 0 .74.72l11.15 3.25a1.1 1.1 0 0 1 .4 1.9l-9.3 7.66a1.1 1.1 0 0 0-.4.9l.5 12.2a1.1 1.1 0 0 1-1.19 1.14c-.2-.02-.4-.1-.57-.22l-9-6.89a1.1 1.1 0 0 0-1.08-.14l-9.97 4.04a1.1 1.1 0 0 1-1.48-1.3l3.02-11.57a1.1 1.1 0 0 0-.18-.91l-7.04-9.6a1.1 1.1 0 0 1 .85-1.74l10.9-.38a1.1 1.1 0 0 0 .91-.56l6.01-10.36a1.1 1.1 0 0 1 2 .2Z"/><path fill="#1D0066" d="M196.6 25.97a7.04 7.04 0 0 1-6.26.25c-.3 1.99-.7 4.33-1.22 6.93l-3.64-.55s-8.82 48.74-31.1 56.26l2.96.3-5.43 2.88c-1.78.89-6.2 6.37-7.8 14.75l-5.47 2.76 1.66 4.8c.2.78.11 1.59-.22 2.31l-2.66 4.12 2.85.42 3-3.84a2.85 2.85 0 0 0 .41-2.76l-1.72-4.56 3.94-2.98c1.6-8.39 5.63-11.28 7.41-12.17a.5.5 0 0 0 .1-.07c4.08-1.5 8-3.39 11.7-5.65 22.3-13.46 29.48-49.18 31.48-63.2Z"/><path fill="#9CA3F3" d="M99.44 6.25V6.2c-.05-.2-.03.15 0 .05Z"/><path fill="#FF4CD2" d="M197.27 20.21c.22-1.49-1.73-3.44-5.36-5.55l-.05.37c3.08 1.91 4.72 3.68 4.51 5.05 0 0-4.17 52.05-32.16 68.95a65.29 65.29 0 0 1-11.7 5.65 9.1 9.1 0 0 0-1.63 1.06c.18.14.32.33.4.55a9.6 9.6 0 0 1 2.14-1.47c4.08-1.5 8-3.38 11.7-5.65 27.99-16.9 32.15-68.96 32.15-68.96Z"/><path fill="#000" d="m204.25 27.2-8.1-3.65L187 27.4l-1.55 5.42 9.73 1.46s2.15-2.76 5.18-2.3c3.03.45 3.37 5.07 3.37 5.07l.53-9.84Z"/><path fill="#4C53E3" d="M202.84 23.37a24.93 24.93 0 0 0-6.69-1.1c-4.88-.05-8.12 1.88-10.24 4.51a3.07 3.07 0 0 0-.67 1.65l-.37 3.98c0 .08.01.16.05.22a.33.33 0 0 0 .4.12.32.32 0 0 0 .16-.15c1.44-2.58 4.8-7.35 9.87-6.59 6.9 1.04 9.11 5.13 5.73 13.57-2.77 6.91-19.9 36.8-25.99 47.38a6.67 6.67 0 0 1-6.42 3.3l-14.3-1.39a7.13 7.13 0 0 0-1.58 0l-.2.37c-1.04 1.7-2.6 2.77-4.17 3.88-.46 4.39 3.76 4.19 8.57 4.9 2.7.41 10.24 1.11 16.47 1.66a14.58 14.58 0 0 0 13.96-7.32l27.73-48.81s9.68-13.76-12.3-20.18Z"/><path fill="#C3C8FC" d="m99.45 6.2-.01.05c-1.24 6.1-9.66 51.95 10.66 74.67a71.85 71.85 0 0 0 3.67 3.81C93.97 63.67 99.59 19.8 102.53 3.51c-1.86.81-2.94 1.73-3.08 2.7Z"/><path fill="#FF4CD2" d="M157 98.03c2.7.4 10.84 1.66 17.07 2.2a14.57 14.57 0 0 0 13.96-7.32l27.73-48.81s5.9-8.39-1.98-15.12c6.95 6.63 1.37 14.57 1.37 14.57l-27.73 48.8a14.58 14.58 0 0 1-13.96 7.33A420.66 420.66 0 0 1 157 98.03Z"/><path fill="#C3C7F7" d="M201 28.46c2.11 2.19 2.21 5.78.07 11.12-2.77 6.91-19.9 36.8-25.99 47.38a6.66 6.66 0 0 1-6.42 3.3l-12.7-1.24c-.03-.17.05.17 0 0l13.31 1.8a6.67 6.67 0 0 0 6.42-3.31c6.1-10.57 23.22-40.46 26-47.38 2.32-5.8 2-9.56-.69-11.67Z"/><path fill="#1D0066" d="M202.84 23.37s9.28 4.23 5.69 14.39c-3.6 10.16-27.97 50.89-27.97 50.89s-2.3 4.6-9.39 4.07c-4.6-.35-11.78-2.12-16.92-2.07a7.68 7.68 0 0 0-5.85 2.79c-.24 4.07 3.89 3.9 8.59 4.6 2.7.4 10.24 1.1 16.47 1.65a14.6 14.6 0 0 0 13.95-7.32l27.74-48.81s9.68-13.77-12.3-20.2Z"/><path fill="#4C53E3" d="M202.84 23.37a29.74 29.74 0 0 0-3.22-.76l-.38.22 7.6 11.67 9.97 5.38c1.29-4.53.86-12.19-13.97-16.51Z"/><path fill="#fff" d="M149.96 2.09c-27.03-4.05-49.8-.6-50.51 4.11l-.01.05a89.78 89.78 0 0 0-1.52 9.2l1.75-7.91c1.76-5.14 24.29-8.66 51.31-4.6 20.89 3.13 38.17 9.43 44.62 14.3-5.45-4.97-23.53-11.83-45.64-15.15Z"/><path fill="#B57AF5" d="m128.37 108-1.43 3.18a8.74 8.74 0 0 0-.64 4.8l.51 3.2 1.47.23 1.24-3.04c.57-1.52.78-3.14.6-4.75l-.37-3.4"/><path fill="#fff" d="M93.26 15.49c-.53.07-1.09.16-1.68.28-7.51 1.49-8.04 6.98-7.76 13.68-.27-12.47 6.89-13.52 9.44-13.96Z"/><path fill="#7C89F7" d="M185.65 29.68c.1-.36.18-.72.26-1.09.1-.45.31-.88.6-1.25 2.14-2.63 5.36-4.56 10.25-4.5 2.27.05 4.52.42 6.69 1.09 4.82 1.41 8.12 3.17 10.33 5.05-2.2-2.1-5.65-4.06-10.94-5.6a24.94 24.94 0 0 0-6.69-1.1c-4.9-.05-8.12 1.89-10.25 4.52a3.04 3.04 0 0 0-.66 1.64l-.37 3.98.78-2.74Z"/><path fill="#3E1689" d="M208.53 37.76c-.18.5-.41 1.1-.7 1.74l7.33 4.03a13.4 13.4 0 0 0 2.08-6.05l-7.89-4.51c.03 1.63-.25 3.26-.82 4.8Z"/><path fill="#7C89F7" d="M202.84 23.37s-1.5 0-1.14.09c2.78.75 4.48 1.93 5.84 3.96.34.51.84.9 1.4 1.19l7.37 3.77c-1.58-3.3-5.38-6.65-13.47-9.01Z"/><path fill="#000" d="m177.05 93.2-28.64.62s-5.3 6.8-4.32 12.97l1.3-1.15s3-6.41 3.17-6.02l.02-.04a4.45 4.45 0 0 1 4.48-2.1l.02.01c1.2.18 2.53.32 3.91.53 2.7.4 10.24 1.1 16.47 1.65a14.6 14.6 0 0 0 12.45-5.15l-8.86-1.33Z"/><path fill="#4C53E3" d="m177.95 89.42-5.84 2.04-13.96-1.2-5.88-.38-3.85 3.23-4.68 5.78s-.92 6.01 1.08 1.52l.16-.33a8.33 8.33 0 0 1 8.34-4.55l12.38 1.25a15.05 15.05 0 0 0 14.51-7.4l6.21-10.64-8.47 10.68Z"/><path fill="#000" d="M145.9 107.04c.69-3.6 1.83-6.18 3.04-8.03l-3.68.54c-1.86 3.07-2.57 7.02-2.57 7.02l-4.06 2.98.16.02 3.17.47 3.94-3Z"/><path fill="#FF4CD2" d="m141.96 110.04 3.94-2.98-4.33 2.93 1.4 4.3c.34.91.25 1.5-.42 2.93l-2.29 3.98 3-3.84a2.84 2.84 0 0 0 .42-2.76l-1.72-4.56Z"/><path fill="#00004F" d="m126.12 107.67 9.58 1.44 5.88.88.58-.53-16.53-2.48.5.69Z"/><path fill="#161A8A" d="m142.9 146.44-28.3-4.18 1.25 2.26c.88 1.52 6.04 3.32 12.26 4.24 6.22.92 11.68.69 12.96-.52l1.84-1.8Z"/><path fill="#000" d="M128.1 148.76c6.23.92 11.69.69 12.97-.52l1.84-1.8-10.88-1.6-4.76 2-.93 1.63 1.77.29Z"/><path fill="#5968F4" d="m142.62 125.16-21.6-3.19c-.25 7.42-1.68 14.28-6.53 19.89l28.65 4.23c-3.02-6.77-2.41-13.75-.52-20.93Z"/><path fill="#5968F4" d="M114.5 141.86c.06 1.75 6.27 4.02 13.87 5.14 7.59 1.12 14.2.74 14.77-.91l-28.65-4.23Z"/><path fill="#8591FF" d="M123.9 123.1a42.15 42.15 0 0 1-7.04 20.84c1 .48 2.3.96 3.78 1.4 4.67-8.13 6.32-19.39 6.65-21.51l-3.39-.72Z"/><path fill="#4249E9" d="m127.27 146.83 1.1.17c7.59 1.12 14.2.74 14.77-.91-3.02-6.77-2.41-13.75-.52-20.93l-6.33-.93-1.48.72c-4.36 4.92-6.6 13.83-7.54 21.88Z"/><path fill="#161A8A" d="M134.89 147.62c4.53.15 7.85-.38 8.25-1.53-3.02-6.77-2.41-13.75-.52-20.93l-2.8-.41-1.02.57c-2.99 4.08-4.07 13.24-3.91 22.3Z"/><path fill="#FF4CD2" d="m142.62 125.16-.68-.1c-2.05 7.32-2.74 15.88.77 21.55.21-.16.36-.33.43-.52-3.02-6.77-2.42-13.75-.52-20.93Z"/><path fill="#4A51DE" d="m142.62 125.19-2.36-4.02-15.81-2.35-3.42 3.16 21.6 3.2Z"/><path fill="#707FFF" d="M121.03 122c0 .53 4.57 1.6 10.22 2.44 5.64.83 10.72 1.18 11.37.75l-2.36-4.02-15.81-2.35-3.42 3.18Z"/><path fill="#393FCC" d="m140.26 121.17-5.8-.87-.06.03.38 4.58c4.1.47 7.33.62 7.84.28l-2.36-4.02Z"/><path fill="#000" d="m140.26 121.17-2.8-.42-.05.03 1.33 4.5c2.1.14 3.55.13 3.88-.1l-2.36-4.01Z"/><path fill="#C3C8FC" d="M123.98 123.1c.96.22 2.1.46 3.37.7l.93-4.4-1.47-.21-2.83 3.9Z"/><path fill="#00004F" d="m123.77 119.44 16.95 2.5-.46-.77-15.83-2.34-.66.6Z"/></g><defs><linearGradient id="b" x1="150.03" x2="135.75" y1="2.1" y2="97.36" gradientUnits="userSpaceOnUse"><stop stop-color="#9CA3F3"/><stop offset="1" stop-color="#7E88EF"/></linearGradient><linearGradient id="c" x1="150.04" x2="134.03" y1="2.1" y2="108.86" gradientUnits="userSpaceOnUse"><stop offset=".16" stop-color="#9CA3F3"/><stop offset="1" stop-color="#5968F4"/></linearGradient><linearGradient id="d" x1="99.43" x2="99.42" y1="6.14" y2="6.26" gradientUnits="userSpaceOnUse"><stop stop-color="#9CA3F3"/><stop offset="1" stop-color="#7E88EF"/></linearGradient><linearGradient id="e" x1="138.29" x2="122.28" y1=".34" y2="107.09" gradientUnits="userSpaceOnUse"><stop offset=".16" stop-color="#C3C7F7"/><stop offset="1" stop-color="#5968F4"/></linearGradient><linearGradient id="f" x1="173.28" x2="160.78" y1="19.05" y2="103.69" gradientUnits="userSpaceOnUse"><stop stop-color="#6975FF"/><stop offset="1" stop-color="#4A51DE"/></linearGradient><linearGradient id="g" x1="122.23" x2="142.14" y1="33.22" y2="65.74" gradientUnits="userSpaceOnUse"><stop stop-color="#A056F2"/><stop offset=".29" stop-color="#7A3DC9"/><stop offset=".59" stop-color="#5928A6"/><stop offset=".84" stop-color="#451B91"/><stop offset="1" stop-color="#3E1689"/></linearGradient><clipPath id="a"><path fill="#fff" d="M16 0h256v192H16z"/></clipPath></defs></svg>