<svg viewBox="0 0 144 144" xmlns="http://www.w3.org/2000/svg" width="144" height="144" fill="none"><g clip-path="url(#a)"><g clip-path="url(#b)"><rect width="144" height="144" fill="#2D35AD" rx="27" transform="matrix(1 0 0 -1 0 144)"/><g filter="url(#c)"><ellipse cx="128.25" cy="122.31" fill="#5865F2" rx="128.25" ry="122.31" transform="matrix(1 0 0 -1 -56.25 83.4)"/></g><g filter="url(#d)"><ellipse cx="101.25" cy="97.63" fill="#FF4CD2" rx="101.25" ry="97.63" transform="matrix(1 0 0 -1 -29.25 45.25)"/></g></g><path fill="#EFEFF1" d="M92.09 72c0 6.13-4.5 10.69-10.54 10.69-6.04 0-10.53-4.56-10.53-10.69s4.5-10.69 10.53-10.69c6.04 0 10.54 4.56 10.54 10.69Zm32.16 0a42.5 42.5 0 0 1-42.7 42.75 42.44 42.44 0 0 1-41.57-32.78h-9.13l-4.22-19.95h13.49a45.86 45.86 0 0 1 5.76-12.82H23.95l-4.21-19.95h60.54c25.56 0 43.96 18.95 43.96 42.75Zm-20.23 0c0-12.68-9.97-22.8-22.47-22.8-12.5 0-22.47 10.12-22.47 22.8 0 12.68 9.97 22.8 22.47 22.8 12.5 0 22.47-10.12 22.47-22.8Z"/></g><defs><clipPath id="a"><path fill="#fff" d="M0 0h144v144H0z"/></clipPath><clipPath id="b"><rect width="144" height="144" fill="#fff" rx="27" transform="matrix(1 0 0 -1 0 144)"/></clipPath><filter id="c" width="436.5" height="424.63" x="-146.25" y="-251.22" color-interpolation-filters="sRGB" filterUnits="userSpaceOnUse"><feFlood flood-opacity="0" result="BackgroundImageFix"/><feBlend in="SourceGraphic" in2="BackgroundImageFix" result="shape"/><feGaussianBlur result="effect1_foregroundBlur_5746_1350" stdDeviation="45"/></filter><filter id="d" width="382.5" height="375.25" x="-119.25" y="-240" color-interpolation-filters="sRGB" filterUnits="userSpaceOnUse"><feFlood flood-opacity="0" result="BackgroundImageFix"/><feBlend in="SourceGraphic" in2="BackgroundImageFix" result="shape"/><feGaussianBlur result="effect1_foregroundBlur_5746_1350" stdDeviation="45"/></filter></defs></svg>